<?xml version="1.0" encoding="iso-8859-1"?>
<!--Downloaded from https://www.svgrepo.com/svg/258612/fish Content is available unter the CC0 license-->
<!-- Uploaded to: SVG Repo, www.svgrepo.com, Generator: SVG Repo Mixer Tools -->
<svg height="800px" width="800px" version="1.1" id="Layer_1" xmlns="http://www.w3.org/2000/svg" xmlns:xlink="http://www.w3.org/1999/xlink" 
	 viewBox="0 0 512 512" xml:space="preserve">
<path style="fill:#47CEAC;" d="M0,256.006C0,397.402,114.606,512.004,255.996,512C397.394,512.004,512,397.402,512,256.006
	C512.009,114.61,397.394,0,255.996,0C114.606,0,0,114.614,0,256.006z"/>
<g>
	<path style="fill:#36BB9A;" d="M466.784,401.247c-0.075-0.071-0.142-0.143-0.217-0.214
		c-0.484-0.496-106.641-106.654-107.161-107.161c-13.851-14.228-41.682-31.142-75.751-42.576
		c-0.25-0.247-20.949-20.956-21.403-21.398c-8.542-8.591-19.408-17.833-33.233-24.467c-1.984-0.962-4.316-0.813-6.178,0.35
		c-1.862,1.174-2.991,3.219-2.991,5.42v42.911c-19.14,8.95-35.477,22.85-45.375,34.893c-11.275-10.336-28.118-21.675-45.819-30.706
		c-1.984-1.019-4.347-0.911-6.253,0.244c-1.898,1.162-3.057,3.231-3.057,5.456c0,15.7,6.215,33.744,11.909,46.974
		c-4.866,10.343-11.65,27.969-11.65,45.825c0,2.225,1.158,4.294,3.056,5.456c0.025,0.016,0.054,0.011,0.079,0.023
		c0.437,0.523,148.79,148.802,148.815,148.815c0.109,0.13,0.245,0.231,0.351,0.365C352.756,506.5,423.427,464.049,466.784,401.247z"
		/>
	<path style="fill:#36BB9A;" d="M511.234,269.244c-0.487-0.513-154.256-154.284-154.768-154.767
		c-7.003-7.398-16.846-12.077-27.814-12.077c-21.175,0-38.4,17.226-38.4,38.4c0,10.966,4.678,20.81,12.076,27.813
		c0.485,0.512,40.457,40.547,40.618,40.709c-0.9,2.611-1.492,5.364-1.492,8.276c0,7.44,3.241,14.089,8.323,18.769
		c0.477,0.517,133.412,133.452,133.929,133.929c0.289,0.314,0.599,0.604,0.901,0.901c15.556-30.81,25.117-65.158,27.027-101.557
		C511.498,269.51,511.371,269.373,511.234,269.244z"/>
</g>
<g>
	<path style="fill:#F4F6F9;" d="M281.123,250.425l-2.631-2.887c-1.45-1.543-3.038-3.331-4.781-5.3
		c-9.446-10.65-23.725-26.743-44.69-36.806c-1.984-0.962-4.316-0.813-6.178,0.35c-1.862,1.175-2.991,3.219-2.991,5.419v42.912
		c-19.14,8.95-35.478,22.85-45.375,34.894c-11.275-10.337-28.118-21.675-45.819-30.706c-1.984-1.019-4.347-0.912-6.253,0.244
		c-1.897,1.163-3.056,3.231-3.056,5.456c0,15.7,6.215,33.744,11.909,46.975c-4.866,10.343-11.65,27.969-11.65,45.825
		c0,2.225,1.159,4.293,3.056,5.456c1.903,1.156,4.272,1.263,6.253,0.244c17.734-9.05,34.194-20.194,45.534-30.7
		c9.909,12.044,26.256,25.937,45.401,34.875V403.2c0,2.201,1.129,4.244,2.991,5.419c1.038,0.65,2.222,0.981,3.409,0.981
		c0.944,0,1.89-0.206,2.769-0.632c18.75-8.994,34.954-20.481,48.194-34.175c44.181-8.669,91.734-50.144,91.734-64.394
		C368.948,295.406,331.502,266.769,281.123,250.425z M272.927,362.569c-1.369,0.238-2.625,0.912-3.575,1.925
		c-10.259,10.912-22.572,20.375-36.7,28.206v-30.181c0-2.575-1.54-4.894-3.909-5.893c-21.825-9.225-39.978-25.788-48.282-38.118
		c-1.093-1.625-2.866-2.656-4.816-2.806c-0.165-0.013-0.332-0.019-0.494-0.019c-1.775,0-3.478,0.737-4.693,2.05
		c-6.594,7.113-19.394,17.619-37.038,27.769c1.666-9.919,5.338-20.925,10.612-31.543c0.85-1.712,0.891-3.712,0.112-5.456
		c-5.415-12.138-9.129-23.519-10.868-33.15c17.906,10.256,30.725,20.7,37.228,27.707c1.328,1.431,3.222,2.162,5.187,2.031
		c1.95-0.15,3.722-1.187,4.813-2.806c8.293-12.325,26.425-28.894,48.241-38.118c2.369-1.001,3.906-3.325,3.906-5.893v-36.212
		c13.775,8.713,23.803,20.019,31.485,28.675c1.831,2.063,3.5,3.943,4.956,5.5l3.718,4.081c0.759,0.831,1.722,1.45,2.797,1.788
		c52.15,16.544,78.471,41.681,80.468,48.169C352.839,319.125,313.193,355.619,272.927,362.569z"/>
	<path style="fill:#F4F6F9;" d="M312.652,294.4c-5.294,0-9.6,4.306-9.6,9.6c0,5.294,4.306,9.6,9.6,9.6s9.6-4.306,9.6-9.6
		C322.252,298.706,317.946,294.4,312.652,294.4z M312.652,307.2c-1.765,0-3.2-1.438-3.2-3.2c0-1.762,1.435-3.2,3.2-3.2
		c1.765,0,3.2,1.438,3.2,3.2C315.852,305.762,314.417,307.2,312.652,307.2z"/>
	<path style="fill:#F4F6F9;" d="M367.052,192c-14.115,0-25.6,11.482-25.6,25.6s11.485,25.6,25.6,25.6s25.6-11.482,25.6-25.6
		S381.167,192,367.052,192z M367.052,230.4c-7.059,0-12.8-5.744-12.8-12.8c0-7.056,5.741-12.8,12.8-12.8
		c7.059,0,12.8,5.744,12.8,12.8C379.852,224.656,374.111,230.4,367.052,230.4z"/>
	<path style="fill:#F4F6F9;" d="M328.652,179.2c21.175,0,38.4-17.225,38.4-38.4s-17.225-38.4-38.4-38.4
		c-21.175,0-38.4,17.225-38.4,38.4S307.476,179.2,328.652,179.2z M328.652,115.2c14.115,0,25.6,11.482,25.6,25.6
		s-11.485,25.6-25.6,25.6s-25.6-11.482-25.6-25.6S314.535,115.2,328.652,115.2z"/>
</g>
</svg>